Coordinates
version=1
nRows=21
nColumns=12
inDegrees=yes

Units are S.I. units (second, meters, Newtons, ...)
Angles are in degrees

endheader
time	SC_y	SC_z	SC_x	AC_y	AC_z	AC_x	GH_y	GH_z	GH_yy	EL_x	PS_y
       0.0              -34.68          26.56          11.31          39.45          3.076         -6.379         -75.33         -8.057          94.87           53.8          141.0
   0.03616              -34.68          26.56          11.32          39.45          3.074          -6.38         -75.29         -8.053          94.83           53.8          141.0
   0.07231              -34.68          26.55          11.33          39.46          3.073         -6.382         -75.25         -8.049          94.79           53.8          141.0
    0.1085              -34.68          26.55          11.34          39.46          3.072         -6.383         -75.21         -8.044          94.75           53.8          141.0
    0.1446              -34.67          26.55          11.35          39.46           3.07         -6.385         -75.17          -8.04           94.7           53.8          141.0
    0.1808              -34.67          26.54          11.36          39.46          3.068         -6.387         -75.12         -8.035          94.65           53.8          140.9
    0.2169              -34.67          26.54          11.37          39.46          3.066         -6.389         -75.07         -8.029           94.6           53.8          140.9
    0.2531              -34.67          26.53          11.39          39.47          3.064         -6.391         -75.02         -8.023          94.55          53.79          140.9
    0.2893              -34.67          26.53           11.4          39.47          3.062         -6.393         -74.97         -8.017          94.49          53.79          140.9
    0.3254              -34.67          26.53          11.42          39.47           3.06         -6.395         -74.91         -8.011          94.42          53.79          140.8
    0.3616              -34.67          26.52          11.43          39.47          3.058         -6.397         -74.84         -8.003          94.36          53.79          140.8
    0.3977              -34.67          26.51          11.45          39.48          3.055           -6.4         -74.77         -7.996          94.28          53.79          140.8
    0.4339              -34.67          26.51          11.47          39.48          3.052         -6.403          -74.7         -7.988           94.2          53.79          140.7
      0.47              -34.67           26.5          11.49          39.48          3.049         -6.406         -74.62         -7.979          94.12          53.79          140.7
    0.5062              -34.67          26.49          11.51          39.49          3.046         -6.409         -74.53         -7.969          94.03          53.79          140.7
    0.5424              -34.67          26.49          11.53          39.49          3.042         -6.413         -74.43         -7.958          93.92          53.79          140.6
    0.5785              -34.67          26.48          11.56           39.5          3.039         -6.417         -74.33         -7.947          93.82          53.79          140.6
    0.6147              -34.67          26.47          11.59           39.5          3.034         -6.421         -74.22         -7.935           93.7          53.79          140.5
    0.6508              -34.67          26.46          11.62          39.51           3.03         -6.426          -74.1         -7.921          93.57          53.79          140.4
     0.687              -34.67          26.45          11.65          39.51          3.025         -6.431         -73.96         -7.906          93.43          53.79          140.4
    0.7231              -34.66          26.44          11.69          39.52          3.019         -6.437         -73.81          -7.89          93.27          53.79          140.3
